<svg width="192" height="192" viewBox="0 0 192 192" fill="none" xmlns="http://www.w3.org/2000/svg">
<rect width="192" height="192" fill="#FFFDFD"/>
<path d="M81.4375 36.25C82.5156 36.5781 83.6172 36.9531 84.7422 37.375C85.8672 37.75 86.9688 38.1484 88.0469 38.5703C88.4219 38.7578 88.9844 39.2734 89.7344 40.1172C90.5312 40.9609 91.5391 42.1562 92.7578 43.7031C94.1172 45.3437 94.9141 46.4453 95.1484 47.0078C95.4297 47.5234 95.9453 48.8359 96.6953 50.9453C97.2109 51.7422 97.8672 53.1953 98.6641 55.3047C99.5078 57.3672 99.9297 58.8672 99.9297 59.8047C99.9297 61.4922 98.6641 63.5547 96.1328 65.9922C93.6016 68.3828 91.6094 69.5781 90.1562 69.5781C89.2188 69.5781 88.5156 69.2969 88.0469 68.7344C87.625 68.125 87.4141 67.2578 87.4141 66.1328C86.9922 64.2578 86.6641 62.6406 86.4297 61.2812C85.1172 56.1719 83.3594 52.3281 81.1562 49.75C79 47.1719 76.3516 45.8828 73.2109 45.8828C71.6172 45.8828 70.0469 46.1641 68.5 46.7266C67 47.2422 65.6172 48.0391 64.3516 49.1172C63.6953 49.6328 62.8281 50.5 61.75 51.7188C60.6719 52.9375 59.3828 54.4609 57.8828 56.2891C57.6953 56.6172 57.4375 56.9922 57.1094 57.4141C56.7812 57.8359 56.3828 58.3984 55.9141 59.1016C55.4922 59.8984 54.9297 60.8594 54.2266 61.9844C53.5703 63.0625 52.75 64.3047 51.7656 65.7109C51.3438 66.9297 50.9219 68.0547 50.5 69.0859C50.0781 70.1172 49.5625 71.0781 48.9531 71.9688C48.8125 72.1562 48.6719 72.5312 48.5312 73.0938C48.3906 73.6094 48.2266 74.3125 48.0391 75.2031C47.7109 76.2812 47.3359 77.4531 46.9141 78.7188C46.5391 79.9844 46.1172 81.3672 45.6484 82.8672C44.8984 87.9766 44.3594 92.0312 44.0312 95.0312C43.7031 97.9844 43.5391 99.9062 43.5391 100.797C43.5391 102.812 43.7031 104.828 44.0312 106.844C44.4062 108.859 44.9688 110.875 45.7188 112.891C46.2812 114.344 46.8203 115.586 47.3359 116.617C47.8516 117.648 48.3438 118.398 48.8125 118.867C49.5156 119.57 50.4062 120.109 51.4844 120.484C52.5625 120.859 53.7578 121.047 55.0703 121.047C56.9453 121.047 58.7266 120.719 60.4141 120.062C62.1016 119.406 63.6719 118.492 65.125 117.32C65.5469 116.945 66.3906 116.102 67.6562 114.789C68.9219 113.43 70.6328 111.602 72.7891 109.305C73.2578 108.93 73.8203 108.414 74.4766 107.758C75.1797 107.055 75.9297 106.281 76.7266 105.438C77.6172 104.219 78.4375 103 79.1875 101.781C79.9844 100.562 80.7812 99.3906 81.5781 98.2656C82.5625 97 83.6406 96.0625 84.8125 95.4531C86.0312 94.8438 87.3438 94.5391 88.75 94.5391C90.6719 94.5391 92.1016 94.9609 93.0391 95.8047C93.9766 96.6484 94.4453 97.9141 94.4453 99.6016C94.4453 100.164 94.2812 100.961 93.9531 101.992C93.625 102.977 93.4141 103.75 93.3203 104.312C93.2266 105.156 93.0859 106.211 92.8984 107.477C92.7109 108.695 92.5 110.148 92.2656 111.836C92.1719 113.945 91.9375 115.82 91.5625 117.461C91.2344 119.102 90.7656 120.531 90.1562 121.75C89.4062 123.344 88.75 125.898 88.1875 129.414C87.6719 132.93 87.0156 135.508 86.2188 137.148C85.9375 137.617 85.6797 138.344 85.4453 139.328C85.2109 140.359 84.9531 141.648 84.6719 143.195C84.4844 144.18 84.25 145.023 83.9688 145.727C83.7344 146.43 83.3828 146.992 82.9141 147.414C82.5391 147.695 82.0234 148 81.3672 148.328C80.7109 148.656 79.7969 149.008 78.625 149.383C78.4375 150.461 78.1094 151.258 77.6406 151.773C77.1719 152.336 76.5391 152.617 75.7422 152.617C75.0859 152.617 74.5703 152.336 74.1953 151.773C73.8672 151.211 73.7031 150.297 73.7031 149.031C73.7031 148.562 73.7734 147.812 73.9141 146.781C74.1016 145.797 74.4062 144.531 74.8281 142.984C75.0156 142.234 75.1797 141.227 75.3203 139.961C75.4609 138.695 75.5547 137.148 75.6016 135.32C75.6953 134.383 75.9297 132.906 76.3047 130.891C76.7266 128.875 77.3125 126.391 78.0625 123.438L77.1484 118.867C77.3359 118.305 77.5 117.672 77.6406 116.969C77.6406 116.641 77.5469 116.406 77.3594 116.266C77.2188 116.078 76.9844 115.984 76.6562 115.984C75.0156 117.109 73.6562 118.188 72.5781 119.219C70.1875 121.281 68.1719 122.969 66.5312 124.281C64.8906 125.594 63.625 126.555 62.7344 127.164C60.8594 128.383 58.9609 129.391 57.0391 130.188C55.1172 130.984 53.1484 131.523 51.1328 131.805L48.0391 131.172C47.1016 131.312 46.3047 131.453 45.6484 131.594C44.6172 131.594 43.5156 131.336 42.3438 130.82C41.1719 130.305 39.9062 129.555 38.5469 128.57C37.375 127.633 36.2734 126.508 35.2422 125.195C34.2578 123.883 33.3906 122.312 32.6406 120.484C32.3594 119.922 32.0078 118.797 31.5859 117.109C31.1641 115.422 30.6016 113.266 29.8984 110.641C30.3203 109.516 30.5781 108.297 30.6719 106.984C30.7656 105.672 30.7188 104.266 30.5312 102.766L31.9375 92.2188C33.0625 83.4062 35.2656 75.5781 38.5469 68.7344C41.875 61.8906 46.1875 55.9141 51.4844 50.8047C53.2656 49.0234 54.7656 47.5937 55.9844 46.5156C57.2031 45.4375 57.9766 44.6875 58.3047 44.2656C59.3359 43.4688 60.4609 42.6719 61.6797 41.875C62.9453 41.0781 64.3047 40.2812 65.7578 39.4844C66.5078 39.0625 67.3516 38.6406 68.2891 38.2188C69.2734 37.75 70.4219 37.2813 71.7344 36.8125L78.2734 36.0391L80.4531 36.6016L81.4375 36.25ZM97.0469 112.047C97.375 111.719 97.7266 111.297 98.1016 110.781C98.4297 110.219 98.8281 109.609 99.2969 108.953L104.711 105.227C105.367 104.43 106.375 103.422 107.734 102.203C109.094 100.938 110.781 99.4141 112.797 97.6328C113.031 97.1172 113.406 96.5312 113.922 95.875C114.484 95.1719 115.141 94.4922 115.891 93.8359C116.547 93.2266 117.203 92.6641 117.859 92.1484C118.516 91.5859 119.125 91.0469 119.688 90.5312C120.391 89.8281 121.047 89.125 121.656 88.4219C122.312 87.7188 122.969 87.0391 123.625 86.3828C124.375 85.7266 125.148 85.2109 125.945 84.8359C126.742 84.4609 127.609 84.2734 128.547 84.2734C129.578 84.2734 130.352 84.4141 130.867 84.6953C131.43 84.9297 131.734 85.2812 131.781 85.75C131.312 86.8281 130.82 87.9062 130.305 88.9844L130.727 89.6172C132.789 88.8203 134.406 88.2344 135.578 87.8594C136.75 87.4844 137.5 87.2969 137.828 87.2969C141.25 87.2969 143.805 88.3516 145.492 90.4609C147.227 92.5234 148.094 95.6641 148.094 99.8828C148.094 100.68 148 101.617 147.812 102.695C147.625 103.773 147.32 104.945 146.898 106.211C146.43 107.617 145.914 108.789 145.352 109.727C144.836 110.664 144.344 111.344 143.875 111.766C144.062 112.375 144.273 112.82 144.508 113.102C144.742 113.336 145.047 113.453 145.422 113.453C145.797 113.453 146.172 113.336 146.547 113.102C146.969 112.867 147.461 112.516 148.023 112.047C148.492 113.078 148.938 114.156 149.359 115.281C149.828 116.359 150.297 117.438 150.766 118.516C149.922 119.266 149.102 119.992 148.305 120.695C147.508 121.398 146.664 122.078 145.773 122.734C144.695 123.625 143.664 124.281 142.68 124.703C141.742 125.078 140.805 125.266 139.867 125.266C138.789 125.266 137.898 125.008 137.195 124.492C136.492 123.977 135.93 123.25 135.508 122.312C134.336 123.859 132.906 125.289 131.219 126.602C129.578 127.867 127.75 128.922 125.734 129.766C124.562 130.328 123.484 130.773 122.5 131.102C121.562 131.383 120.695 131.523 119.898 131.523C119.664 131.523 119.195 131.617 118.492 131.805C117.836 131.992 117.297 132.086 116.875 132.086C114.203 132.086 111.789 130.961 109.633 128.711C107.477 126.461 106.398 123.953 106.398 121.188C106.398 120.062 106.656 118.586 107.172 116.758C107.688 114.883 107.945 113.781 107.945 113.453C107.945 113.125 107.828 112.867 107.594 112.68C107.406 112.445 107.125 112.328 106.75 112.328C106.516 112.328 105.953 112.68 105.062 113.383C104.172 114.086 102.906 115.094 101.266 116.406C101.125 116.594 100.961 116.875 100.773 117.25C100.586 117.625 100.281 118.047 99.8594 118.516C99.4844 117.438 99.0625 116.359 98.5938 115.281C98.125 114.156 97.6094 113.078 97.0469 112.047ZM130.867 99.1797C130.633 99.2266 130.281 99.4844 129.812 99.9531C129.391 100.375 128.969 100.914 128.547 101.57C127.891 102.648 127.141 103.82 126.297 105.086C125.781 105.648 125.219 106.094 124.609 106.422C124.047 106.703 123.391 106.914 122.641 107.055C122.172 107.102 121.68 107.57 121.164 108.461C120.648 109.305 120.133 110.547 119.617 112.188C119.102 113.641 118.727 114.883 118.492 115.914C118.258 116.945 118.141 117.812 118.141 118.516C118.141 119.828 118.469 120.812 119.125 121.469C119.781 122.125 120.789 122.453 122.148 122.453C124.305 122.453 126.273 121.867 128.055 120.695C129.883 119.477 131.594 117.672 133.188 115.281C133.938 114.391 134.641 113.547 135.297 112.75C135.672 112.469 135.977 112.023 136.211 111.414C136.445 110.758 136.68 109.961 136.914 109.023L138.18 105.016C137.758 103.609 137.359 102.508 136.984 101.711C136.609 100.867 136.234 100.352 135.859 100.164C135.625 100.023 135.109 99.8828 134.312 99.7422C133.516 99.5547 132.367 99.3672 130.867 99.1797Z" fill="#182F43"/>
</svg>
