<svg width="55" height="53" viewBox="0 0 55 53" fill="none" xmlns="http://www.w3.org/2000/svg">
<path d="M23.75 1C24.2292 1.14583 24.7188 1.3125 25.2188 1.5C25.7188 1.66667 26.2083 1.84375 26.6875 2.03125C26.8542 2.11458 27.1042 2.34375 27.4375 2.71875C27.7917 3.09375 28.2396 3.625 28.7812 4.3125C29.3854 5.04167 29.7396 5.53125 29.8438 5.78125C29.9688 6.01042 30.1979 6.59375 30.5312 7.53125C30.7604 7.88542 31.0521 8.53125 31.4062 9.46875C31.7812 10.3854 31.9688 11.0521 31.9688 11.4688C31.9688 12.2188 31.4062 13.1354 30.2812 14.2188C29.1562 15.2812 28.2708 15.8125 27.625 15.8125C27.2083 15.8125 26.8958 15.6875 26.6875 15.4375C26.5 15.1667 26.4062 14.7812 26.4062 14.2812C26.2188 13.4479 26.0729 12.7292 25.9688 12.125C25.3854 9.85417 24.6042 8.14583 23.625 7C22.6667 5.85417 21.4896 5.28125 20.0938 5.28125C19.3854 5.28125 18.6875 5.40625 18 5.65625C17.3333 5.88542 16.7188 6.23958 16.1562 6.71875C15.8646 6.94792 15.4792 7.33333 15 7.875C14.5208 8.41667 13.9479 9.09375 13.2812 9.90625C13.1979 10.0521 13.0833 10.2188 12.9375 10.4062C12.7917 10.5938 12.6146 10.8438 12.4062 11.1562C12.2188 11.5104 11.9688 11.9375 11.6562 12.4375C11.3646 12.9167 11 13.4688 10.5625 14.0938C10.375 14.6354 10.1875 15.1354 10 15.5938C9.8125 16.0521 9.58333 16.4792 9.3125 16.875C9.25 16.9583 9.1875 17.125 9.125 17.375C9.0625 17.6042 8.98958 17.9167 8.90625 18.3125C8.76042 18.7917 8.59375 19.3125 8.40625 19.875C8.23958 20.4375 8.05208 21.0521 7.84375 21.7188C7.51042 23.9896 7.27083 25.7917 7.125 27.125C6.97917 28.4375 6.90625 29.2917 6.90625 29.6875C6.90625 30.5833 6.97917 31.4792 7.125 32.375C7.29167 33.2708 7.54167 34.1667 7.875 35.0625C8.125 35.7083 8.36458 36.2604 8.59375 36.7188C8.82292 37.1771 9.04167 37.5104 9.25 37.7188C9.5625 38.0312 9.95833 38.2708 10.4375 38.4375C10.9167 38.6042 11.4479 38.6875 12.0312 38.6875C12.8646 38.6875 13.6562 38.5417 14.4062 38.25C15.1562 37.9583 15.8542 37.5521 16.5 37.0312C16.6875 36.8646 17.0625 36.4896 17.625 35.9062C18.1875 35.3021 18.9479 34.4896 19.9062 33.4688C20.1146 33.3021 20.3646 33.0729 20.6562 32.7812C20.9688 32.4688 21.3021 32.125 21.6562 31.75C22.0521 31.2083 22.4167 30.6667 22.75 30.125C23.1042 29.5833 23.4583 29.0625 23.8125 28.5625C24.25 28 24.7292 27.5833 25.25 27.3125C25.7917 27.0417 26.375 26.9062 27 26.9062C27.8542 26.9062 28.4896 27.0938 28.9062 27.4688C29.3229 27.8438 29.5312 28.4062 29.5312 29.1562C29.5312 29.4062 29.4583 29.7604 29.3125 30.2188C29.1667 30.6562 29.0729 31 29.0312 31.25C28.9896 31.625 28.9271 32.0938 28.8438 32.6562C28.7604 33.1979 28.6667 33.8438 28.5625 34.5938C28.5208 35.5312 28.4167 36.3646 28.25 37.0938C28.1042 37.8229 27.8958 38.4583 27.625 39C27.2917 39.7083 27 40.8438 26.75 42.4062C26.5208 43.9688 26.2292 45.1146 25.875 45.8438C25.75 46.0521 25.6354 46.375 25.5312 46.8125C25.4271 47.2708 25.3125 47.8438 25.1875 48.5312C25.1042 48.9688 25 49.3438 24.875 49.6562C24.7708 49.9688 24.6146 50.2188 24.4062 50.4062C24.2396 50.5312 24.0104 50.6667 23.7188 50.8125C23.4271 50.9583 23.0208 51.1146 22.5 51.2812C22.4167 51.7604 22.2708 52.1146 22.0625 52.3438C21.8542 52.5938 21.5729 52.7188 21.2188 52.7188C20.9271 52.7188 20.6979 52.5938 20.5312 52.3438C20.3854 52.0938 20.3125 51.6875 20.3125 51.125C20.3125 50.9167 20.3438 50.5833 20.4062 50.125C20.4896 49.6875 20.625 49.125 20.8125 48.4375C20.8958 48.1042 20.9688 47.6562 21.0312 47.0938C21.0938 46.5312 21.1354 45.8438 21.1562 45.0312C21.1979 44.6146 21.3021 43.9583 21.4688 43.0625C21.6562 42.1667 21.9167 41.0625 22.25 39.75L21.8438 37.7188C21.9271 37.4688 22 37.1875 22.0625 36.875C22.0625 36.7292 22.0208 36.625 21.9375 36.5625C21.875 36.4792 21.7708 36.4375 21.625 36.4375C20.8958 36.9375 20.2917 37.4167 19.8125 37.875C18.75 38.7917 17.8542 39.5417 17.125 40.125C16.3958 40.7083 15.8333 41.1354 15.4375 41.4062C14.6042 41.9479 13.7604 42.3958 12.9062 42.75C12.0521 43.1042 11.1771 43.3438 10.2812 43.4688L8.90625 43.1875C8.48958 43.25 8.13542 43.3125 7.84375 43.375C7.38542 43.375 6.89583 43.2604 6.375 43.0312C5.85417 42.8021 5.29167 42.4688 4.6875 42.0312C4.16667 41.6146 3.67708 41.1146 3.21875 40.5312C2.78125 39.9479 2.39583 39.25 2.0625 38.4375C1.9375 38.1875 1.78125 37.6875 1.59375 36.9375C1.40625 36.1875 1.15625 35.2292 0.84375 34.0625C1.03125 33.5625 1.14583 33.0208 1.1875 32.4375C1.22917 31.8542 1.20833 31.2292 1.125 30.5625L1.75 25.875C2.25 21.9583 3.22917 18.4792 4.6875 15.4375C6.16667 12.3958 8.08333 9.73958 10.4375 7.46875C11.2292 6.67708 11.8958 6.04167 12.4375 5.5625C12.9792 5.08333 13.3229 4.75 13.4688 4.5625C13.9271 4.20833 14.4271 3.85417 14.9688 3.5C15.5312 3.14583 16.1354 2.79167 16.7812 2.4375C17.1146 2.25 17.4896 2.0625 17.9062 1.875C18.3438 1.66667 18.8542 1.45833 19.4375 1.25L22.3438 0.90625L23.3125 1.15625L23.75 1ZM30.6875 34.6875C30.8333 34.5417 30.9896 34.3542 31.1562 34.125C31.3021 33.875 31.4792 33.6042 31.6875 33.3125L34.0938 31.6562C34.3854 31.3021 34.8333 30.8542 35.4375 30.3125C36.0417 29.75 36.7917 29.0729 37.6875 28.2812C37.7917 28.0521 37.9583 27.7917 38.1875 27.5C38.4375 27.1875 38.7292 26.8854 39.0625 26.5938C39.3542 26.3229 39.6458 26.0729 39.9375 25.8438C40.2292 25.5938 40.5 25.3542 40.75 25.125C41.0625 24.8125 41.3542 24.5 41.625 24.1875C41.9167 23.875 42.2083 23.5729 42.5 23.2812C42.8333 22.9896 43.1771 22.7604 43.5312 22.5938C43.8854 22.4271 44.2708 22.3438 44.6875 22.3438C45.1458 22.3438 45.4896 22.4062 45.7188 22.5312C45.9688 22.6354 46.1042 22.7917 46.125 23C45.9167 23.4792 45.6979 23.9583 45.4688 24.4375L45.6562 24.7188C46.5729 24.3646 47.2917 24.1042 47.8125 23.9375C48.3333 23.7708 48.6667 23.6875 48.8125 23.6875C50.3333 23.6875 51.4688 24.1562 52.2188 25.0938C52.9896 26.0104 53.375 27.4062 53.375 29.2812C53.375 29.6354 53.3333 30.0521 53.25 30.5312C53.1667 31.0104 53.0312 31.5312 52.8438 32.0938C52.6354 32.7188 52.4062 33.2396 52.1562 33.6562C51.9271 34.0729 51.7083 34.375 51.5 34.5625C51.5833 34.8333 51.6771 35.0312 51.7812 35.1562C51.8854 35.2604 52.0208 35.3125 52.1875 35.3125C52.3542 35.3125 52.5208 35.2604 52.6875 35.1562C52.875 35.0521 53.0938 34.8958 53.3438 34.6875C53.5521 35.1458 53.75 35.625 53.9375 36.125C54.1458 36.6042 54.3542 37.0833 54.5625 37.5625C54.1875 37.8958 53.8229 38.2188 53.4688 38.5312C53.1146 38.8438 52.7396 39.1458 52.3438 39.4375C51.8646 39.8333 51.4062 40.125 50.9688 40.3125C50.5521 40.4792 50.1354 40.5625 49.7188 40.5625C49.2396 40.5625 48.8438 40.4479 48.5312 40.2188C48.2188 39.9896 47.9688 39.6667 47.7812 39.25C47.2604 39.9375 46.625 40.5729 45.875 41.1562C45.1458 41.7188 44.3333 42.1875 43.4375 42.5625C42.9167 42.8125 42.4375 43.0104 42 43.1562C41.5833 43.2812 41.1979 43.3438 40.8438 43.3438C40.7396 43.3438 40.5312 43.3854 40.2188 43.4688C39.9271 43.5521 39.6875 43.5938 39.5 43.5938C38.3125 43.5938 37.2396 43.0938 36.2812 42.0938C35.3229 41.0938 34.8438 39.9792 34.8438 38.75C34.8438 38.25 34.9583 37.5938 35.1875 36.7812C35.4167 35.9479 35.5312 35.4583 35.5312 35.3125C35.5312 35.1667 35.4792 35.0521 35.375 34.9688C35.2917 34.8646 35.1667 34.8125 35 34.8125C34.8958 34.8125 34.6458 34.9688 34.25 35.2812C33.8542 35.5938 33.2917 36.0417 32.5625 36.625C32.5 36.7083 32.4271 36.8333 32.3438 37C32.2604 37.1667 32.125 37.3542 31.9375 37.5625C31.7708 37.0833 31.5833 36.6042 31.375 36.125C31.1667 35.625 30.9375 35.1458 30.6875 34.6875ZM45.7188 28.9688C45.6146 28.9896 45.4583 29.1042 45.25 29.3125C45.0625 29.5 44.875 29.7396 44.6875 30.0312C44.3958 30.5104 44.0625 31.0312 43.6875 31.5938C43.4583 31.8438 43.2083 32.0417 42.9375 32.1875C42.6875 32.3125 42.3958 32.4062 42.0625 32.4688C41.8542 32.4896 41.6354 32.6979 41.4062 33.0938C41.1771 33.4688 40.9479 34.0208 40.7188 34.75C40.4896 35.3958 40.3229 35.9479 40.2188 36.4062C40.1146 36.8646 40.0625 37.25 40.0625 37.5625C40.0625 38.1458 40.2083 38.5833 40.5 38.875C40.7917 39.1667 41.2396 39.3125 41.8438 39.3125C42.8021 39.3125 43.6771 39.0521 44.4688 38.5312C45.2812 37.9896 46.0417 37.1875 46.75 36.125C47.0833 35.7292 47.3958 35.3542 47.6875 35C47.8542 34.875 47.9896 34.6771 48.0938 34.4062C48.1979 34.1146 48.3021 33.7604 48.4062 33.3438L48.9688 31.5625C48.7812 30.9375 48.6042 30.4479 48.4375 30.0938C48.2708 29.7188 48.1042 29.4896 47.9375 29.4062C47.8333 29.3438 47.6042 29.2812 47.25 29.2188C46.8958 29.1354 46.3854 29.0521 45.7188 28.9688Z" fill="#182F43"/>
</svg>
